HIERARCHY
ROOT Hips
{
     OFFSET 1.54825 100.00600 25.87710
     CHANNELS 6 Xposition Yposition Zposition Zrotation Xrotation Yrotation
     JOINT Spine
     {
          OFFSET -0.00000 11.89050 -0.00000
          CHANNELS 3 Zrotation Xrotation Yrotation
          JOINT Spine1
          {
               OFFSET 0.00000 25.65740 0.12766
               CHANNELS 3 Zrotation Xrotation Yrotation
               JOINT HEad
               {
                    OFFSET 0.00000 8.73416 0.01134
                    CHANNELS 3 Zrotation Xrotation Yrotation
                    End Site
                    {
                         OFFSET -0.29000 12.77420 2.51395
                    }
               }
               JOINT LeftShoulder1
               {
                    OFFSET 8.99000 -0.36225 -0.22000
                    CHANNELS 3 Zrotation Xrotation Yrotation
                    JOINT LeftArm
                    {
                         OFFSET 10.28270 -0.00338 0.32212
                         CHANNELS 3 Zrotation Xrotation Yrotation
                         JOINT LeftForeArm
                         {
                              OFFSET 32.76690 0.09914 -1.42434
                              CHANNELS 3 Zrotation Xrotation Yrotation
                              JOINT LeftHand
                              {
                                   OFFSET 27.56430 0.08536 1.02216
                                   CHANNELS 3 Zrotation Xrotation Yrotation
                                   End Site
                                   {
                                        OFFSET 16.74430 -0.60000 1.50291
                                   }
                              }
                         }
                    }
               }
               JOINT RightShoulder
               {
                    OFFSET -8.99000 -0.36225 -0.22000
                    CHANNELS 3 Zrotation Xrotation Yrotation
                    JOINT RightArm
                    {
                         OFFSET -10.28270 -0.00338 0.32212
                         CHANNELS 3 Zrotation Xrotation Yrotation
                         JOINT RightForeArm
                         {
                              OFFSET -32.89710 0.09914 -1.42434
                              CHANNELS 3 Zrotation Xrotation Yrotation
                              JOINT RightHand
                              {
                                   OFFSET -27.49210 0.08536 1.02216
                                   CHANNELS 3 Zrotation Xrotation Yrotation
                                   End Site
                                   {
                                        OFFSET -16.63120 -0.60000 1.50291
                                   }
                              }
                         }
                    }
               }
          }
     }
     JOINT LeftUpLeg
     {
          OFFSET 8.94580 -8.66707 0.10165
          CHANNELS 3 Zrotation Xrotation Yrotation
          JOINT LeftLeg
          {
               OFFSET 0.00000 -44.42270 1.37270
               CHANNELS 3 Zrotation Xrotation Yrotation
               JOINT LeftFoot
               {
                    OFFSET -0.25355 -42.09240 -1.46059
                    CHANNELS 3 Zrotation Xrotation Yrotation
                    JOINT LeftToes
                    {
                         OFFSET -0.04000 -4.41509 8.49910
                         CHANNELS 3 Zrotation Xrotation Yrotation
                         End Site
                         {
                              OFFSET 0.08000 -0.04745 9.77979
                         }
                    }
               }
          }
     }
     JOINT RightUpLeg
     {
          OFFSET -8.94580 -8.66707 0.10165
          CHANNELS 3 Zrotation Xrotation Yrotation
          JOINT RightLeg
          {
               OFFSET 0.00000 -44.42270 1.37270
               CHANNELS 3 Zrotation Xrotation Yrotation
               JOINT RightFoot
               {
                    OFFSET 0.25355 -42.09240 -1.46059
                    CHANNELS 3 Zrotation Xrotation Yrotation
                    JOINT RightToes
                    {
                         OFFSET 0.04000 -4.41509 8.49910
                         CHANNELS 3 Zrotation Xrotation Yrotation
                         End Site
                         {
                              OFFSET -0.08000 -0.13745 9.77979
                         }
                    }
               }
          }
     }
}
MOTION
Frames: 14
Frame Time: 0.01667
7.07089 86.87010 -2.48221 -1.71500 -7.07617 -49.39560 6.12149 5.15867 2.69106 14.95210 10.34310 5.42956 -13.04160 -12.56180 14.85580 -0.00000 -0.00000 0.00000 173.46001 -87.16090 -177.36400 -71.06410 45.79730 -62.16900 21.81410 3.58484 -28.85800 2.51640 0.33528 1.19694 59.01950 -5.26082 88.25590 38.09500 15.27020 62.86280 -8.05925 8.14011 22.97840 23.28100 -30.08970 -17.88260 -22.00190 26.58210 28.76630 -0.59519 7.46599 0.01790 3.08671 -14.71340 2.07032 -25.84750 11.00970 -6.96026 -3.54964 45.08870 -6.33487 21.03620 -13.44530 0.88061 1.83765 -36.97120 -6.46877 
7.55010 85.86950 -4.73606 -1.05811 -5.50001 -51.43380 6.11902 5.32762 2.83572 14.43580 10.72200 5.84362 -13.31880 -13.63170 16.67700 -0.00000 -0.00000 0.00000 101.07900 -85.74720 112.81400 -72.99960 44.32850 -61.31030 20.69010 3.73862 -29.85790 1.23120 0.41483 3.28073 60.56400 -4.34872 88.19000 37.61870 15.54590 62.51450 -7.91141 8.16247 23.18100 26.02370 -32.09700 -19.77320 -23.08530 26.28340 32.45820 -4.92416 3.69362 0.44961 2.15849 -11.38700 3.15365 -25.35340 8.96943 -10.18510 -2.41839 44.47310 -8.34485 18.33210 -19.68700 1.73872 2.26343 -35.72840 -4.05402 
8.16660 84.83940 -6.92242 -1.34297 -4.61452 -52.94310 6.06480 5.99305 2.68524 14.50070 11.97550 5.62249 -13.40060 -15.57760 18.24080 -0.00000 -0.00000 0.00000 88.60530 -82.91820 103.65000 -73.15130 44.37970 -61.34240 21.77030 3.47075 -29.48720 -0.33956 0.35730 3.58199 60.23680 -2.28902 89.00630 37.20490 14.43990 63.11630 -7.64102 8.22657 23.20710 27.77400 -33.50990 -21.58790 -23.38640 27.08390 34.30620 -5.16815 3.08930 0.45035 2.20696 -11.66370 3.36833 -25.02820 6.36434 -13.20230 -4.60478 47.01500 -3.71936 19.49370 -23.95180 2.61274 2.83179 -34.83690 -0.64886 
8.94247 84.27820 -8.65159 -1.95062 -4.33245 -53.51820 6.24991 6.91359 2.35761 14.84680 13.73330 4.93823 -14.75280 -16.49730 19.84350 -0.00000 -0.00000 0.00000 92.05100 -81.58650 110.66700 -73.30250 45.15670 -61.02510 22.79650 3.34158 -28.57380 -2.17955 0.29586 4.60337 60.30870 -2.67257 88.31400 38.02880 15.39350 63.99240 -7.36703 8.31481 22.85230 28.15990 -34.42960 -25.58080 -24.58940 26.74740 36.91520 -4.94321 0.99308 0.35196 1.12691 -7.96470 4.42524 -23.71000 2.94193 -18.27820 -14.87560 50.15180 11.27380 23.12900 -21.04540 2.55462 3.36328 -41.50370 -0.80343 
9.70059 83.93990 -10.22390 -2.99992 -4.56860 -53.65380 6.23641 8.00117 2.01905 15.16960 15.76920 4.16793 -15.61470 -17.41180 20.69280 -0.00000 -0.00000 0.00000 90.09340 -83.16870 112.33200 -72.78690 45.73430 -62.21300 23.85290 3.15733 -27.94200 -2.10175 0.28954 4.18014 58.74030 -2.84537 87.63710 36.69160 16.91190 66.38440 -7.30681 8.37017 22.17150 26.30810 -34.82010 -24.23450 -20.76070 30.16710 30.34460 -3.53067 -1.07582 0.19414 0.37296 -5.29649 4.81695 -24.63280 0.76127 -17.25570 -10.72720 55.67810 5.59399 20.68270 -19.73900 2.00860 3.84074 -42.20950 0.80512 
10.17750 83.73850 -11.60600 -4.14456 -5.39958 -52.34520 6.51296 8.96106 1.23339 15.19410 17.68660 2.61380 -14.16330 -19.16880 22.21710 -0.00000 -0.00000 0.00000 103.41800 -85.24670 127.35000 -73.37530 46.33900 -60.97710 24.18400 2.82858 -28.95380 -0.22998 0.36530 3.65063 55.78690 -3.95468 86.65720 35.64260 18.39760 69.59880 -7.75745 8.32582 21.21840 22.88740 -34.83410 -23.17830 -15.48540 33.13050 19.06900 -1.81797 -3.83418 0.06847 -1.81308 -0.10540 8.85352 -26.24320 1.12775 -16.81020 -2.79705 59.40710 -2.86347 13.39160 -21.18260 1.37110 3.25888 -40.34110 -0.82196 
10.59280 83.79110 -12.77260 -5.21587 -6.35817 -51.20310 6.56855 9.63216 0.55029 15.10710 19.01520 1.44419 -13.07360 -19.00910 22.03190 -0.00000 -0.00000 0.00000 132.71201 -86.24720 157.00400 -73.34560 47.36630 -59.95400 23.17610 3.33923 -28.04450 1.67750 0.44199 3.40626 53.27300 -4.13920 84.43860 34.21970 18.85180 72.14040 -7.90518 8.27465 21.49260 20.05420 -34.70710 -22.18190 -11.14560 35.14900 11.54090 -2.60193 -4.84750 0.07783 -2.52313 2.92506 8.14188 -27.40310 2.41469 -16.46920 3.35776 60.73100 -9.19553 10.33580 -21.69270 1.04136 3.67328 -38.72800 1.67110 
10.84330 83.90660 -13.76310 -5.42684 -6.81484 -51.02040 5.61035 10.16600 0.46933 14.52180 19.76980 1.18540 -11.51980 -18.71510 22.69540 -0.00000 -0.00000 0.00000 -155.98199 -86.93540 -132.19901 -71.33760 48.45630 -61.71640 24.56450 3.35350 -26.13930 3.75361 0.50039 2.93169 50.93790 -4.31243 82.93940 35.14920 18.68840 72.84890 -8.46301 8.18135 21.01240 18.54730 -35.38900 -22.42200 -9.70034 37.09960 12.81480 -9.19222 -5.42413 0.19770 -3.01251 7.58956 5.19158 -26.80510 2.29476 -17.39060 0.76466 60.74770 -5.76188 10.65600 -20.82370 1.00252 3.66635 -41.94690 0.23142 
10.87500 84.25840 -14.17290 -5.26727 -6.70220 -51.45580 5.30937 10.19970 0.45850 13.89090 19.83280 1.26634 -10.02440 -17.97780 24.14640 -0.00000 -0.00000 0.00000 -121.76500 -85.39170 -98.79780 -67.31310 49.58560 -65.01580 24.83320 3.54707 -24.96000 4.05812 0.51859 3.00193 51.57950 -3.46951 81.46250 36.78520 18.02900 72.00240 -7.95229 8.28664 21.14690 18.65900 -35.61940 -22.15840 -10.68420 37.84420 16.34680 -12.73750 -0.90001 0.74510 -0.93238 1.06005 3.28777 -24.57850 1.46766 -19.08910 -8.02107 59.81790 1.21658 13.82310 -21.43610 1.45492 3.42166 -40.58180 -0.23120 
10.87250 84.74540 -14.28290 -5.04459 -6.57760 -52.90910 5.02808 10.27800 0.63589 13.24980 20.02960 1.59785 -9.84636 -17.52710 24.74870 -0.00000 -0.00000 0.00000 -112.53600 -84.46950 -89.78990 -62.31080 51.33650 -69.38010 26.03710 3.45851 -23.95270 4.30277 0.56314 3.42286 51.37970 -2.75158 81.28470 38.36390 16.77630 71.22810 -7.55773 8.38947 20.91700 19.28950 -35.30830 -21.55400 -13.17820 39.01840 21.08650 -24.18520 0.26429 1.67970 -1.87037 2.93209 5.37450 -23.30780 0.52059 -18.64580 -12.41810 58.52990 4.23925 13.79490 -21.42780 1.45038 3.34427 -39.73480 -0.23040 
10.83670 85.32620 -14.18670 -4.45833 -6.31491 -53.64190 4.62928 10.12990 0.58193 13.08550 19.60960 1.37849 -10.33470 -17.56370 25.54060 -0.00000 -0.00000 0.00000 -105.44900 -84.16990 -82.13880 -58.38490 52.11630 -73.27390 25.99890 3.58927 -23.44670 3.31800 0.59327 4.45764 52.99710 -2.74879 81.10320 38.86490 16.65750 69.86060 -7.00175 8.49983 21.14870 19.62200 -35.65690 -22.16460 -18.78030 39.71360 25.61620 -20.85800 0.57861 1.49649 -0.56104 -0.79295 3.67058 -22.23650 -0.23411 -18.92180 -16.00260 56.93560 6.02006 15.11030 -21.53360 1.62968 3.30297 -37.69150 0.45278 
10.77640 86.03130 -13.86810 -4.75832 -6.23561 -54.30870 4.46015 10.15070 0.69997 13.21300 19.64460 1.45148 -11.53240 -17.73720 25.38840 -0.00000 -0.00000 0.00000 -93.37980 -82.74840 -69.50850 -54.05740 52.48840 -78.10140 26.89660 3.57777 -22.54520 2.60495 0.56005 4.54637 54.20370 -3.25419 81.79640 36.08120 17.85290 69.98530 -7.46214 8.41718 20.81120 19.03210 -34.81150 -21.36710 -20.91430 41.24150 27.43860 -14.59790 -1.16649 0.82407 0.16473 -2.63094 2.18725 -21.61800 0.59012 -18.27800 -15.42840 54.84990 5.43323 14.65900 -20.59620 1.45177 3.24922 -37.78570 0.15473 
10.67360 86.77200 -13.46610 -4.20638 -5.84915 -54.38330 3.88312 9.98533 0.77029 13.11770 19.13970 1.39559 -11.12290 -18.20220 25.38920 -0.00000 -0.00000 0.00000 -97.18770 -82.51820 -72.66390 -53.22440 53.20490 -79.30440 26.96960 3.71370 -21.91870 2.56890 0.56858 4.70559 54.71730 -3.80819 82.47610 34.94590 18.63440 70.01200 -7.80486 8.33147 20.96440 17.76010 -34.93170 -20.45520 -20.68390 42.62410 32.01240 -18.03870 -3.84866 0.61440 -0.34066 1.21260 0.38581 -21.79520 1.03211 -17.62620 -12.82680 52.86440 3.71216 15.47380 -19.68530 1.42416 3.38282 -37.89490 0.73624 
10.46950 87.50420 -12.78840 -3.83125 -5.46619 -54.52380 4.04637 9.59848 0.75951 12.94940 18.47210 1.48712 -11.42220 -18.24860 25.22140 -0.00000 -0.00000 0.00000 -94.00300 -81.84230 -69.31510 -53.83070 52.51280 -79.06750 26.22150 3.77862 -22.41550 1.86235 0.50743 4.35762 55.58090 -3.50389 83.14440 35.05610 18.32270 69.63290 -8.09420 8.23398 21.45720 16.71160 -34.41780 -19.08890 -18.92740 42.61780 32.58040 -14.05090 -3.10382 0.56608 -0.14653 -0.50841 1.27144 -22.02560 1.80897 -17.62960 -11.27280 50.61300 2.75718 16.73650 -18.78610 1.43047 3.51912 -36.93390 1.88349 
